{
    "asset" : {
        "generator" : "Khronos glTF Blender I/O v3.3.32",
        "version" : "2.0"
    },
    "scene" : 0,
    "scenes" : [
        {
            "name" : "Scene",
            "nodes" : [
                0
            ]
        }
    ],
    "nodes" : [
        {
            "mesh" : 0,
            "name" : "\ud050\ube0c",
            "scale" : [
                0.9682673811912537,
                0.9682673811912537,
                4.1694746017456055
            ],
            "translation" : [
                0.8051457405090332,
                2.1060500144958496,
                -0.9315738677978516
            ]
        }
    ],
    "materials" : [
        {
            "doubleSided" : true,
            "name" : "\ub9e4\ud14c\ub9ac\uc5bc",
            "pbrMetallicRoughness" : {
                "metallicFactor" : 0,
                "roughnessFactor" : 0.5
            }
        },
        {
            "doubleSided" : true,
            "name" : "floor",
            "pbrMetallicRoughness" : {
                "baseColorFactor" : [
                    0.5088807940483093,
                    0.5088809132575989,
                    0.5088813900947571,
                    1
                ],
                "metallicFactor" : 0,
                "roughnessFactor" : 0.5
            }
        },
        {
            "doubleSided" : true,
            "name" : "grass",
            "pbrMetallicRoughness" : {
                "baseColorFactor" : [
                    0.3277773857116699,
                    0.7991025447845459,
                    0.27889445424079895,
                    1
                ],
                "metallicFactor" : 0,
                "roughnessFactor" : 0.5
            }
        },
        {
            "doubleSided" : true,
            "name" : "dek",
            "pbrMetallicRoughness" : {
                "baseColorFactor" : [
                    0.7991025447845459,
                    0.5332760214805603,
                    0.3915725648403168,
                    1
                ],
                "metallicFactor" : 0,
                "roughnessFactor" : 0.5
            }
        },
        {
            "doubleSided" : true,
            "name" : "window",
            "pbrMetallicRoughness" : {
                "baseColorFactor" : [
                    0.011611961759626865,
                    0.2050786167383194,
                    0.20155629515647888,
                    1
                ],
                "metallicFactor" : 0,
                "roughnessFactor" : 0.5
            }
        }
    ],
    "meshes" : [
        {
            "name" : "\ud050\ube0c",
            "primitives" : [
                {
                    "attributes" : {
                        "POSITION" : 0,
                        "NORMAL" : 1,
                        "TEXCOORD_0" : 2
                    },
                    "indices" : 3,
                    "material" : 0
                },
                {
                    "attributes" : {
                        "POSITION" : 4,
                        "NORMAL" : 5,
                        "TEXCOORD_0" : 6
                    },
                    "indices" : 7,
                    "material" : 1
                },
                {
                    "attributes" : {
                        "POSITION" : 8,
                        "NORMAL" : 9,
                        "TEXCOORD_0" : 10
                    },
                    "indices" : 11,
                    "material" : 2
                },
                {
                    "attributes" : {
                        "POSITION" : 12,
                        "NORMAL" : 13,
                        "TEXCOORD_0" : 14
                    },
                    "indices" : 15,
                    "material" : 3
                },
                {
                    "attributes" : {
                        "POSITION" : 16,
                        "NORMAL" : 17,
                        "TEXCOORD_0" : 18
                    },
                    "indices" : 19,
                    "material" : 4
                }
            ]
        }
    ],
    "accessors" : [
        {
            "bufferView" : 0,
            "componentType" : 5126,
            "count" : 13327,
            "max" : [
                1,
                1.4596238136291504,
                1.1150774955749512
            ],
            "min" : [
                -2.6936733722686768,
                -1,
                -1
            ],
            "type" : "VEC3"
        },
        {
            "bufferView" : 1,
            "componentType" : 5126,
            "count" : 13327,
            "type" : "VEC3"
        },
        {
            "bufferView" : 2,
            "componentType" : 5126,
            "count" : 13327,
            "type" : "VEC2"
        },
        {
            "bufferView" : 3,
            "componentType" : 5123,
            "count" : 28692,
            "type" : "SCALAR"
        },
        {
            "bufferView" : 4,
            "componentType" : 5126,
            "count" : 142,
            "max" : [
                0.3128684163093567,
                1.3504388332366943,
                1.0926240682601929
            ],
            "min" : [
                -1.2789130210876465,
                1.2804977893829346,
                0.3065895438194275
            ],
            "type" : "VEC3"
        },
        {
            "bufferView" : 5,
            "componentType" : 5126,
            "count" : 142,
            "type" : "VEC3"
        },
        {
            "bufferView" : 6,
            "componentType" : 5126,
            "count" : 142,
            "type" : "VEC2"
        },
        {
            "bufferView" : 7,
            "componentType" : 5123,
            "count" : 324,
            "type" : "SCALAR"
        },
        {
            "bufferView" : 8,
            "componentType" : 5126,
            "count" : 215,
            "max" : [
                1,
                1.040619134902954,
                1
            ],
            "min" : [
                -2.2040181159973145,
                1.040619134902954,
                -1
            ],
            "type" : "VEC3"
        },
        {
            "bufferView" : 9,
            "componentType" : 5126,
            "count" : 215,
            "type" : "VEC3"
        },
        {
            "bufferView" : 10,
            "componentType" : 5126,
            "count" : 215,
            "type" : "VEC2"
        },
        {
            "bufferView" : 11,
            "componentType" : 5123,
            "count" : 510,
            "type" : "SCALAR"
        },
        {
            "bufferView" : 12,
            "componentType" : 5126,
            "count" : 43,
            "max" : [
                1,
                1.040619134902954,
                0.047153688967227936
            ],
            "min" : [
                -1.3142614364624023,
                1.040619134902954,
                -1
            ],
            "type" : "VEC3"
        },
        {
            "bufferView" : 13,
            "componentType" : 5126,
            "count" : 43,
            "type" : "VEC3"
        },
        {
            "bufferView" : 14,
            "componentType" : 5126,
            "count" : 43,
            "type" : "VEC2"
        },
        {
            "bufferView" : 15,
            "componentType" : 5123,
            "count" : 84,
            "type" : "SCALAR"
        },
        {
            "bufferView" : 16,
            "componentType" : 5126,
            "count" : 913,
            "max" : [
                0.9633274078369141,
                0.722065806388855,
                1.0992242097854614
            ],
            "min" : [
                -2.289667844772339,
                -0.9769400358200073,
                -0.7556905150413513
            ],
            "type" : "VEC3"
        },
        {
            "bufferView" : 17,
            "componentType" : 5126,
            "count" : 913,
            "type" : "VEC3"
        },
        {
            "bufferView" : 18,
            "componentType" : 5126,
            "count" : 913,
            "type" : "VEC2"
        },
        {
            "bufferView" : 19,
            "componentType" : 5123,
            "count" : 1494,
            "type" : "SCALAR"
        }
    ],
    "bufferViews" : [
        {
            "buffer" : 0,
            "byteLength" : 159924,
            "byteOffset" : 0,
            "target" : 34962
        },
        {
            "buffer" : 0,
            "byteLength" : 159924,
            "byteOffset" : 159924,
            "target" : 34962
        },
        {
            "buffer" : 0,
            "byteLength" : 106616,
            "byteOffset" : 319848,
            "target" : 34962
        },
        {
            "buffer" : 0,
            "byteLength" : 57384,
            "byteOffset" : 426464,
            "target" : 34963
        },
        {
            "buffer" : 0,
            "byteLength" : 1704,
            "byteOffset" : 483848,
            "target" : 34962
        },
        {
            "buffer" : 0,
            "byteLength" : 1704,
            "byteOffset" : 485552,
            "target" : 34962
        },
        {
            "buffer" : 0,
            "byteLength" : 1136,
            "byteOffset" : 487256,
            "target" : 34962
        },
        {
            "buffer" : 0,
            "byteLength" : 648,
            "byteOffset" : 488392,
            "target" : 34963
        },
        {
            "buffer" : 0,
            "byteLength" : 2580,
            "byteOffset" : 489040,
            "target" : 34962
        },
        {
            "buffer" : 0,
            "byteLength" : 2580,
            "byteOffset" : 491620,
            "target" : 34962
        },
        {
            "buffer" : 0,
            "byteLength" : 1720,
            "byteOffset" : 494200,
            "target" : 34962
        },
        {
            "buffer" : 0,
            "byteLength" : 1020,
            "byteOffset" : 495920,
            "target" : 34963
        },
        {
            "buffer" : 0,
            "byteLength" : 516,
            "byteOffset" : 496940,
            "target" : 34962
        },
        {
            "buffer" : 0,
            "byteLength" : 516,
            "byteOffset" : 497456,
            "target" : 34962
        },
        {
            "buffer" : 0,
            "byteLength" : 344,
            "byteOffset" : 497972,
            "target" : 34962
        },
        {
            "buffer" : 0,
            "byteLength" : 168,
            "byteOffset" : 498316,
            "target" : 34963
        },
        {
            "buffer" : 0,
            "byteLength" : 10956,
            "byteOffset" : 498484,
            "target" : 34962
        },
        {
            "buffer" : 0,
            "byteLength" : 10956,
            "byteOffset" : 509440,
            "target" : 34962
        },
        {
            "buffer" : 0,
            "byteLength" : 7304,
            "byteOffset" : 520396,
            "target" : 34962
        },
        {
            "buffer" : 0,
            "byteLength" : 2988,
            "byteOffset" : 527700,
            "target" : 34963
        }
    ],
    "buffers" : [
        {
            "byteLength" : 530688,
            "uri" : "data:application/octet-stream;base64,"
        }
    ]
}
