{
    "asset" : {
        "generator" : "Khronos glTF Blender I/O v3.3.32",
        "version" : "2.0"
    },
    "scene" : 0,
    "scenes" : [
        {
            "name" : "Scene",
            "nodes" : [
                0
            ]
        }
    ],
    "nodes" : [
        {
            "mesh" : 0,
            "name" : "Cube"
        }
    ],
    "materials" : [
        {
            "doubleSided" : true,
            "name" : "Black",
            "pbrMetallicRoughness" : {
                "baseColorFactor" : [
                    0,
                    0,
                    0,
                    1
                ],
                "metallicFactor" : 0,
                "roughnessFactor" : 0.5
            }
        },
        {
            "doubleSided" : true,
            "name" : "Body",
            "pbrMetallicRoughness" : {
                "baseColorFactor" : [
                    0.7420195937156677,
                    0.20409248769283295,
                    0.037143975496292114,
                    1
                ],
                "metallicFactor" : 0,
                "roughnessFactor" : 0.5
            }
        },
        {
            "doubleSided" : true,
            "name" : "Hood",
            "pbrMetallicRoughness" : {
                "baseColorFactor" : [
                    0.12211847305297852,
                    0.5478085875511169,
                    0.8000000715255737,
                    1
                ],
                "metallicFactor" : 0,
                "roughnessFactor" : 0.5
            }
        },
        {
            "doubleSided" : true,
            "name" : "Nose",
            "pbrMetallicRoughness" : {
                "baseColorFactor" : [
                    0.800000011920929,
                    0.800000011920929,
                    0.800000011920929,
                    1
                ],
                "metallicFactor" : 0,
                "roughnessFactor" : 0.5
            }
        }
    ],
    "meshes" : [
        {
            "name" : "Cube",
            "primitives" : [
                {
                    "attributes" : {
                        "POSITION" : 0,
                        "NORMAL" : 1,
                        "TEXCOORD_0" : 2
                    },
                    "indices" : 3,
                    "material" : 0
                },
                {
                    "attributes" : {
                        "POSITION" : 4,
                        "NORMAL" : 5,
                        "TEXCOORD_0" : 6
                    },
                    "indices" : 7,
                    "material" : 1
                },
                {
                    "attributes" : {
                        "POSITION" : 8,
                        "NORMAL" : 9,
                        "TEXCOORD_0" : 10
                    },
                    "indices" : 11,
                    "material" : 2
                },
                {
                    "attributes" : {
                        "POSITION" : 12,
                        "NORMAL" : 13,
                        "TEXCOORD_0" : 14
                    },
                    "indices" : 15,
                    "material" : 3
                }
            ]
        }
    ],
    "accessors" : [
        {
            "bufferView" : 0,
            "componentType" : 5126,
            "count" : 4024,
            "max" : [
                0.9004789590835571,
                5.0919904708862305,
                1.3708713054656982
            ],
            "min" : [
                -0.9004789590835571,
                1.1590272188186646,
                0.9807852506637573
            ],
            "type" : "VEC3"
        },
        {
            "bufferView" : 1,
            "componentType" : 5126,
            "count" : 4024,
            "type" : "VEC3"
        },
        {
            "bufferView" : 2,
            "componentType" : 5126,
            "count" : 4024,
            "type" : "VEC2"
        },
        {
            "bufferView" : 3,
            "componentType" : 5123,
            "count" : 5844,
            "type" : "SCALAR"
        },
        {
            "bufferView" : 4,
            "componentType" : 5126,
            "count" : 8320,
            "max" : [
                1.4859726428985596,
                5.892486095428467,
                1.3293228149414062
            ],
            "min" : [
                -1.4859726428985596,
                -0.11735668778419495,
                -0.40688300132751465
            ],
            "type" : "VEC3"
        },
        {
            "bufferView" : 5,
            "componentType" : 5126,
            "count" : 8320,
            "type" : "VEC3"
        },
        {
            "bufferView" : 6,
            "componentType" : 5126,
            "count" : 8320,
            "type" : "VEC2"
        },
        {
            "bufferView" : 7,
            "componentType" : 5123,
            "count" : 12264,
            "type" : "SCALAR"
        },
        {
            "bufferView" : 8,
            "componentType" : 5126,
            "count" : 8638,
            "max" : [
                1.7898420095443726,
                6.125922203063965,
                1.3073399066925049
            ],
            "min" : [
                -1.7898420095443726,
                1.1590272188186646,
                -1.3073394298553467
            ],
            "type" : "VEC3"
        },
        {
            "bufferView" : 9,
            "componentType" : 5126,
            "count" : 8638,
            "type" : "VEC3"
        },
        {
            "bufferView" : 10,
            "componentType" : 5126,
            "count" : 8638,
            "type" : "VEC2"
        },
        {
            "bufferView" : 11,
            "componentType" : 5123,
            "count" : 12768,
            "type" : "SCALAR"
        },
        {
            "bufferView" : 12,
            "componentType" : 5126,
            "count" : 3968,
            "max" : [
                0.3039673864841461,
                4.303046703338623,
                1.4990785121917725
            ],
            "min" : [
                -0.3039673864841461,
                3.8677115440368652,
                1.0637428760528564
            ],
            "type" : "VEC3"
        },
        {
            "bufferView" : 13,
            "componentType" : 5126,
            "count" : 3968,
            "type" : "VEC3"
        },
        {
            "bufferView" : 14,
            "componentType" : 5126,
            "count" : 3968,
            "type" : "VEC2"
        },
        {
            "bufferView" : 15,
            "componentType" : 5123,
            "count" : 5760,
            "type" : "SCALAR"
        }
    ],
    "bufferViews" : [
        {
            "buffer" : 0,
            "byteLength" : 48288,
            "byteOffset" : 0,
            "target" : 34962
        },
        {
            "buffer" : 0,
            "byteLength" : 48288,
            "byteOffset" : 48288,
            "target" : 34962
        },
        {
            "buffer" : 0,
            "byteLength" : 32192,
            "byteOffset" : 96576,
            "target" : 34962
        },
        {
            "buffer" : 0,
            "byteLength" : 11688,
            "byteOffset" : 128768,
            "target" : 34963
        },
        {
            "buffer" : 0,
            "byteLength" : 99840,
            "byteOffset" : 140456,
            "target" : 34962
        },
        {
            "buffer" : 0,
            "byteLength" : 99840,
            "byteOffset" : 240296,
            "target" : 34962
        },
        {
            "buffer" : 0,
            "byteLength" : 66560,
            "byteOffset" : 340136,
            "target" : 34962
        },
        {
            "buffer" : 0,
            "byteLength" : 24528,
            "byteOffset" : 406696,
            "target" : 34963
        },
        {
            "buffer" : 0,
            "byteLength" : 103656,
            "byteOffset" : 431224,
            "target" : 34962
        },
        {
            "buffer" : 0,
            "byteLength" : 103656,
            "byteOffset" : 534880,
            "target" : 34962
        },
        {
            "buffer" : 0,
            "byteLength" : 69104,
            "byteOffset" : 638536,
            "target" : 34962
        },
        {
            "buffer" : 0,
            "byteLength" : 25536,
            "byteOffset" : 707640,
            "target" : 34963
        },
        {
            "buffer" : 0,
            "byteLength" : 47616,
            "byteOffset" : 733176,
            "target" : 34962
        },
        {
            "buffer" : 0,
            "byteLength" : 47616,
            "byteOffset" : 780792,
            "target" : 34962
        },
        {
            "buffer" : 0,
            "byteLength" : 31744,
            "byteOffset" : 828408,
            "target" : 34962
        },
        {
            "buffer" : 0,
            "byteLength" : 11520,
            "byteOffset" : 860152,
            "target" : 34963
        }
    ],
    "buffers" : [
        {
            "byteLength" : 871672,
            "uri" : "data:application/octet-stream;base64,"
        }
    ]
}
