{
    "asset" : {
        "generator" : "Khronos glTF Blender I/O v3.3.32",
        "version" : "2.0"
    },
    "extensionsUsed" : [
        "KHR_materials_transmission",
        "KHR_materials_ior"
    ],
    "scene" : 0,
    "scenes" : [
        {
            "name" : "Scene",
            "nodes" : [
                0,
                1
            ]
        }
    ],
    "nodes" : [
        {
            "mesh" : 0,
            "name" : "Cube.001",
            "rotation" : [
                0,
                1,
                0,
                0
            ],
            "scale" : [
                -9.44454574584961,
                -4.5425896644592285,
                -4.090664386749268
            ],
            "translation" : [
                10.718118667602539,
                3.8613264560699463,
                0
            ]
        },
        {
            "mesh" : 1,
            "name" : "Text",
            "rotation" : [
                0,
                -0.7010655999183655,
                -0.7130968570709229,
                1.3919802504588482e-23
            ],
            "scale" : [
                -1.012210488319397,
                -1.6741975545883179,
                -1.012210488319397
            ],
            "translation" : [
                4.677144527435303,
                7.050657272338867,
                4.20233154296875
            ]
        }
    ],
    "materials" : [
        {
            "doubleSided" : true,
            "name" : "building",
            "pbrMetallicRoughness" : {
                "baseColorFactor" : [
                    0.3588375747203827,
                    0.3588375747203827,
                    0.3588375747203827,
                    1
                ],
                "metallicFactor" : 0,
                "roughnessFactor" : 0.4000000059604645
            }
        },
        {
            "doubleSided" : true,
            "extensions" : {
                "KHR_materials_transmission" : {
                    "transmissionFactor" : 1
                },
                "KHR_materials_ior" : {
                    "ior" : 1.4500000476837158
                }
            },
            "name" : "Material",
            "pbrMetallicRoughness" : {
                "baseColorFactor" : [
                    0.014428908936679363,
                    0.34554043412208557,
                    0.8000000715255737,
                    1
                ],
                "metallicFactor" : 0,
                "roughnessFactor" : 0.4000000059604645
            }
        },
        {
            "doubleSided" : true,
            "extensions" : {
                "KHR_materials_transmission" : {
                    "transmissionFactor" : 1
                },
                "KHR_materials_ior" : {
                    "ior" : 1.4500000476837158
                }
            },
            "name" : "glass.001",
            "pbrMetallicRoughness" : {
                "baseColorFactor" : [
                    0.014428908936679363,
                    0.34554043412208557,
                    0.8000000715255737,
                    1
                ],
                "metallicFactor" : 0,
                "roughnessFactor" : 0.4000000059604645
            }
        },
        {
            "doubleSided" : true,
            "extensions" : {
                "KHR_materials_transmission" : {
                    "transmissionFactor" : 1
                },
                "KHR_materials_ior" : {
                    "ior" : 1.4500000476837158
                }
            },
            "name" : "glass",
            "pbrMetallicRoughness" : {
                "baseColorFactor" : [
                    0.014428908936679363,
                    0.34554043412208557,
                    0.8000000715255737,
                    1
                ],
                "metallicFactor" : 0,
                "roughnessFactor" : 0.4000000059604645
            }
        },
        {
            "doubleSided" : true,
            "extensions" : {
                "KHR_materials_transmission" : {
                    "transmissionFactor" : 1
                },
                "KHR_materials_ior" : {
                    "ior" : 1.4500000476837158
                }
            },
            "name" : "glass.002",
            "pbrMetallicRoughness" : {
                "baseColorFactor" : [
                    0.014428908936679363,
                    0.34554043412208557,
                    0.8000000715255737,
                    1
                ],
                "metallicFactor" : 0,
                "roughnessFactor" : 0.4000000059604645
            }
        },
        {
            "doubleSided" : true,
            "extensions" : {
                "KHR_materials_transmission" : {
                    "transmissionFactor" : 1
                },
                "KHR_materials_ior" : {
                    "ior" : 1.4500000476837158
                }
            },
            "name" : "glass.003",
            "pbrMetallicRoughness" : {
                "baseColorFactor" : [
                    0.014428908936679363,
                    0.34554043412208557,
                    0.8000000715255737,
                    1
                ],
                "metallicFactor" : 0,
                "roughnessFactor" : 0.4000000059604645
            }
        },
        {
            "doubleSided" : true,
            "name" : "pillar",
            "pbrMetallicRoughness" : {
                "baseColorFactor" : [
                    0.16794686019420624,
                    0.16794686019420624,
                    0.16794686019420624,
                    1
                ],
                "metallicFactor" : 0,
                "roughnessFactor" : 0.5
            }
        },
        {
            "doubleSided" : true,
            "name" : "Material.003",
            "pbrMetallicRoughness" : {
                "baseColorFactor" : [
                    0.03172137960791588,
                    0.05431531369686127,
                    0.8000000715255737,
                    1
                ],
                "metallicFactor" : 0,
                "roughnessFactor" : 0.5
            }
        }
    ],
    "meshes" : [
        {
            "name" : "Cube.001",
            "primitives" : [
                {
                    "attributes" : {
                        "POSITION" : 0,
                        "NORMAL" : 1,
                        "TEXCOORD_0" : 2
                    },
                    "indices" : 3,
                    "material" : 0
                },
                {
                    "attributes" : {
                        "POSITION" : 4,
                        "NORMAL" : 5,
                        "TEXCOORD_0" : 6
                    },
                    "indices" : 7,
                    "material" : 1
                },
                {
                    "attributes" : {
                        "POSITION" : 8,
                        "NORMAL" : 9,
                        "TEXCOORD_0" : 10
                    },
                    "indices" : 11,
                    "material" : 2
                },
                {
                    "attributes" : {
                        "POSITION" : 12,
                        "NORMAL" : 13,
                        "TEXCOORD_0" : 14
                    },
                    "indices" : 15,
                    "material" : 3
                },
                {
                    "attributes" : {
                        "POSITION" : 16,
                        "NORMAL" : 17,
                        "TEXCOORD_0" : 18
                    },
                    "indices" : 19,
                    "material" : 4
                },
                {
                    "attributes" : {
                        "POSITION" : 20,
                        "NORMAL" : 21,
                        "TEXCOORD_0" : 22
                    },
                    "indices" : 23,
                    "material" : 5
                },
                {
                    "attributes" : {
                        "POSITION" : 24,
                        "NORMAL" : 25,
                        "TEXCOORD_0" : 26
                    },
                    "indices" : 27,
                    "material" : 6
                }
            ]
        },
        {
            "name" : "Text",
            "primitives" : [
                {
                    "attributes" : {
                        "POSITION" : 28,
                        "NORMAL" : 29,
                        "TEXCOORD_0" : 30
                    },
                    "indices" : 31,
                    "material" : 7
                }
            ]
        }
    ],
    "accessors" : [
        {
            "bufferView" : 0,
            "componentType" : 5126,
            "count" : 170,
            "max" : [
                1.4078776836395264,
                1.0701665878295898,
                1.4776325225830078
            ],
            "min" : [
                -1.1342581510543823,
                -1,
                -5.3565826416015625
            ],
            "type" : "VEC3"
        },
        {
            "bufferView" : 1,
            "componentType" : 5126,
            "count" : 170,
            "type" : "VEC3"
        },
        {
            "bufferView" : 2,
            "componentType" : 5126,
            "count" : 170,
            "type" : "VEC2"
        },
        {
            "bufferView" : 3,
            "componentType" : 5123,
            "count" : 288,
            "type" : "SCALAR"
        },
        {
            "bufferView" : 4,
            "componentType" : 5126,
            "count" : 38,
            "max" : [
                -0.7503385543823242,
                1.1880831718444824,
                0.8337815999984741
            ],
            "min" : [
                -1.5193564891815186,
                -2.402721881866455,
                0.4340430796146393
            ],
            "type" : "VEC3"
        },
        {
            "bufferView" : 5,
            "componentType" : 5126,
            "count" : 38,
            "type" : "VEC3"
        },
        {
            "bufferView" : 6,
            "componentType" : 5126,
            "count" : 38,
            "type" : "VEC2"
        },
        {
            "bufferView" : 7,
            "componentType" : 5123,
            "count" : 60,
            "type" : "SCALAR"
        },
        {
            "bufferView" : 8,
            "componentType" : 5126,
            "count" : 40,
            "max" : [
                -0.7503385543823242,
                1.1880831718444824,
                -0.1342967450618744
            ],
            "min" : [
                -1.5193564891815186,
                -2.402721881866455,
                -1.1578257083892822
            ],
            "type" : "VEC3"
        },
        {
            "bufferView" : 9,
            "componentType" : 5126,
            "count" : 40,
            "type" : "VEC3"
        },
        {
            "bufferView" : 10,
            "componentType" : 5126,
            "count" : 40,
            "type" : "VEC2"
        },
        {
            "bufferView" : 11,
            "componentType" : 5123,
            "count" : 60,
            "type" : "SCALAR"
        },
        {
            "bufferView" : 12,
            "componentType" : 5126,
            "count" : 62,
            "max" : [
                -0.7409188747406006,
                1.1880831718444824,
                1.0164649486541748
            ],
            "min" : [
                -1.5193564891815186,
                -1.875258207321167,
                -0.29622358083724976
            ],
            "type" : "VEC3"
        },
        {
            "bufferView" : 13,
            "componentType" : 5126,
            "count" : 62,
            "type" : "VEC3"
        },
        {
            "bufferView" : 14,
            "componentType" : 5126,
            "count" : 62,
            "type" : "VEC2"
        },
        {
            "bufferView" : 15,
            "componentType" : 5123,
            "count" : 96,
            "type" : "SCALAR"
        },
        {
            "bufferView" : 16,
            "componentType" : 5126,
            "count" : 1536,
            "max" : [
                1.106932520866394,
                0.8702714443206787,
                1.464635968208313
            ],
            "min" : [
                -0.952681303024292,
                -0.3253694176673889,
                -4.199469089508057
            ],
            "type" : "VEC3"
        },
        {
            "bufferView" : 17,
            "componentType" : 5126,
            "count" : 1536,
            "type" : "VEC3"
        },
        {
            "bufferView" : 18,
            "componentType" : 5126,
            "count" : 1536,
            "type" : "VEC2"
        },
        {
            "bufferView" : 19,
            "componentType" : 5123,
            "count" : 2304,
            "type" : "SCALAR"
        },
        {
            "bufferView" : 20,
            "componentType" : 5126,
            "count" : 24,
            "max" : [
                0.7874408960342407,
                0.7609476447105408,
                -4.553905487060547
            ],
            "min" : [
                0.7815746068954468,
                -0.32513195276260376,
                -4.940117835998535
            ],
            "type" : "VEC3"
        },
        {
            "bufferView" : 21,
            "componentType" : 5126,
            "count" : 24,
            "type" : "VEC3"
        },
        {
            "bufferView" : 22,
            "componentType" : 5126,
            "count" : 24,
            "type" : "VEC2"
        },
        {
            "bufferView" : 23,
            "componentType" : 5123,
            "count" : 36,
            "type" : "SCALAR"
        },
        {
            "bufferView" : 24,
            "componentType" : 5126,
            "count" : 3264,
            "max" : [
                1.4124596118927002,
                1.9506349563598633,
                0.8221834897994995
            ],
            "min" : [
                -1.4509209394454956,
                0.8569044470787048,
                -5.306954860687256
            ],
            "type" : "VEC3"
        },
        {
            "bufferView" : 25,
            "componentType" : 5126,
            "count" : 3264,
            "type" : "VEC3"
        },
        {
            "bufferView" : 26,
            "componentType" : 5126,
            "count" : 3264,
            "type" : "VEC2"
        },
        {
            "bufferView" : 27,
            "componentType" : 5123,
            "count" : 6324,
            "type" : "SCALAR"
        },
        {
            "bufferView" : 28,
            "componentType" : 5126,
            "count" : 16202,
            "max" : [
                4.600393772125244,
                0.04999999701976776,
                0.15551181137561798
            ],
            "min" : [
                0.040784940123558044,
                -0.04999999701976776,
                -0.7785432934761047
            ],
            "type" : "VEC3"
        },
        {
            "bufferView" : 29,
            "componentType" : 5126,
            "count" : 16202,
            "type" : "VEC3"
        },
        {
            "bufferView" : 30,
            "componentType" : 5126,
            "count" : 16202,
            "type" : "VEC2"
        },
        {
            "bufferView" : 31,
            "componentType" : 5123,
            "count" : 30444,
            "type" : "SCALAR"
        }
    ],
    "bufferViews" : [
        {
            "buffer" : 0,
            "byteLength" : 2040,
            "byteOffset" : 0,
            "target" : 34962
        },
        {
            "buffer" : 0,
            "byteLength" : 2040,
            "byteOffset" : 2040,
            "target" : 34962
        },
        {
            "buffer" : 0,
            "byteLength" : 1360,
            "byteOffset" : 4080,
            "target" : 34962
        },
        {
            "buffer" : 0,
            "byteLength" : 576,
            "byteOffset" : 5440,
            "target" : 34963
        },
        {
            "buffer" : 0,
            "byteLength" : 456,
            "byteOffset" : 6016,
            "target" : 34962
        },
        {
            "buffer" : 0,
            "byteLength" : 456,
            "byteOffset" : 6472,
            "target" : 34962
        },
        {
            "buffer" : 0,
            "byteLength" : 304,
            "byteOffset" : 6928,
            "target" : 34962
        },
        {
            "buffer" : 0,
            "byteLength" : 120,
            "byteOffset" : 7232,
            "target" : 34963
        },
        {
            "buffer" : 0,
            "byteLength" : 480,
            "byteOffset" : 7352,
            "target" : 34962
        },
        {
            "buffer" : 0,
            "byteLength" : 480,
            "byteOffset" : 7832,
            "target" : 34962
        },
        {
            "buffer" : 0,
            "byteLength" : 320,
            "byteOffset" : 8312,
            "target" : 34962
        },
        {
            "buffer" : 0,
            "byteLength" : 120,
            "byteOffset" : 8632,
            "target" : 34963
        },
        {
            "buffer" : 0,
            "byteLength" : 744,
            "byteOffset" : 8752,
            "target" : 34962
        },
        {
            "buffer" : 0,
            "byteLength" : 744,
            "byteOffset" : 9496,
            "target" : 34962
        },
        {
            "buffer" : 0,
            "byteLength" : 496,
            "byteOffset" : 10240,
            "target" : 34962
        },
        {
            "buffer" : 0,
            "byteLength" : 192,
            "byteOffset" : 10736,
            "target" : 34963
        },
        {
            "buffer" : 0,
            "byteLength" : 18432,
            "byteOffset" : 10928,
            "target" : 34962
        },
        {
            "buffer" : 0,
            "byteLength" : 18432,
            "byteOffset" : 29360,
            "target" : 34962
        },
        {
            "buffer" : 0,
            "byteLength" : 12288,
            "byteOffset" : 47792,
            "target" : 34962
        },
        {
            "buffer" : 0,
            "byteLength" : 4608,
            "byteOffset" : 60080,
            "target" : 34963
        },
        {
            "buffer" : 0,
            "byteLength" : 288,
            "byteOffset" : 64688,
            "target" : 34962
        },
        {
            "buffer" : 0,
            "byteLength" : 288,
            "byteOffset" : 64976,
            "target" : 34962
        },
        {
            "buffer" : 0,
            "byteLength" : 192,
            "byteOffset" : 65264,
            "target" : 34962
        },
        {
            "buffer" : 0,
            "byteLength" : 72,
            "byteOffset" : 65456,
            "target" : 34963
        },
        {
            "buffer" : 0,
            "byteLength" : 39168,
            "byteOffset" : 65528,
            "target" : 34962
        },
        {
            "buffer" : 0,
            "byteLength" : 39168,
            "byteOffset" : 104696,
            "target" : 34962
        },
        {
            "buffer" : 0,
            "byteLength" : 26112,
            "byteOffset" : 143864,
            "target" : 34962
        },
        {
            "buffer" : 0,
            "byteLength" : 12648,
            "byteOffset" : 169976,
            "target" : 34963
        },
        {
            "buffer" : 0,
            "byteLength" : 194424,
            "byteOffset" : 182624,
            "target" : 34962
        },
        {
            "buffer" : 0,
            "byteLength" : 194424,
            "byteOffset" : 377048,
            "target" : 34962
        },
        {
            "buffer" : 0,
            "byteLength" : 129616,
            "byteOffset" : 571472,
            "target" : 34962
        },
        {
            "buffer" : 0,
            "byteLength" : 60888,
            "byteOffset" : 701088,
            "target" : 34963
        }
    ],
    "buffers" : [
        {
            "byteLength" : 761976,
            "uri" : "data:application/octet-stream;base64,"
        }
    ]
}
